<?xml version="1.0" encoding="iso-8859-1"?>
<!-- Generator: Adobe Illustrator 16.0.0, SVG Export Plug-In . SVG Version: 6.00 Build 0)  -->
<!DOCTYPE svg PUBLIC "-//W3C//DTD SVG 1.1//EN" "http://www.w3.org/Graphics/SVG/1.1/DTD/svg11.dtd">
<svg xmlns="http://www.w3.org/2000/svg" xmlns:xlink="http://www.w3.org/1999/xlink" version="1.1" id="Capa_1" x="0px" y="0px" width="512px" height="512px" viewBox="0 0 501.104 501.104" style="enable-background:new 0 0 501.104 501.104;" xml:space="preserve">
<g>
	<g>
		<path d="M459.42,422.451c5.068-14.43-4.609-29.969-16.83-35.419l-80.325-35.697c-3.854-1.712-8.463-2.61-13.32-2.61    c-9.936,0-19.899,3.691-25.991,9.61l-25.302,24.509c-3.768,3.652-10.452,6.101-16.648,6.101c-2.649,0-4.973-0.469-6.732-1.357    c-17.069-8.559-43.92-25.646-74.865-58.475c-27.482-29.156-40.516-49.113-46.617-60.723c-3.414-6.512,0.153-17.767,5.508-23.122    l22.52-22.5c9.362-9.353,13.569-26.565,9.591-39.207l-25.322-80.411c-3.844-12.221-16.83-24.881-32.005-24.881    c-20.98,0.698-50.423,8.205-71.624,40c-32.751,49.151-30.781,143.762,29.51,210.939c56.084,62.48,139.373,131.465,140.1,132.067    c1.798,1.625,44.752,39.828,107.588,39.828c6.053,0,12.239-0.373,18.417-1.101C425.473,491.713,450.556,447.85,459.42,422.451z     M355.332,485.736c-5.527,0.669-11.141,1.014-16.696,1.014c-56.553,0-96.457-34.779-98.226-36.348    c-3.423-2.85-84.657-70.485-138.78-130.786C47.687,259.516,43.47,171.092,73.382,126.215    c17.795-26.699,42.706-33.02,60.482-33.622c7.249,0.029,15.367,8.004,17.538,14.86l25.331,80.411    c2.381,7.573-0.45,19.134-6.063,24.748l-22.52,22.51c-9.199,9.189-14.64,27.435-8.052,39.933    c6.531,12.432,20.32,33.603,48.865,63.897c32.378,34.339,60.77,52.383,78.871,61.468c3.71,1.864,8.271,2.85,13.196,2.85    c9.964,0,20.158-3.873,26.594-10.127l25.302-24.519c5.068-4.896,17.041-7.048,23.515-4.179l80.315,35.697    c6.12,2.725,11.446,10.987,9.142,17.566C438.124,439.96,416.035,478.392,355.332,485.736z" fill="#fddd73"/>
		<path d="M228.61,180.147c0.803,1.74,2.237,3.05,4.026,3.71c0.793,0.296,1.635,0.45,2.477,0.45c2.993,0,5.689-1.884,6.722-4.695    c19.804-53.789-7.851-113.669-61.64-133.464c-3.625-1.329-7.879,0.65-9.209,4.246c-0.66,1.798-0.593,3.749,0.21,5.479    c0.803,1.74,2.238,3.06,4.036,3.729c46.378,17.069,70.217,68.688,53.148,115.056C227.72,176.456,227.797,178.407,228.61,180.147z" fill="#fddd73"/>
		<path d="M271.564,208.644c0.793,0.287,1.626,0.43,2.467,0.43c2.983,0,5.699-1.884,6.732-4.695    c30.266-82.189-12.001-173.674-94.21-203.949c-3.624-1.368-7.879,0.66-9.208,4.255c-0.66,1.797-0.574,3.749,0.229,5.479    c0.803,1.741,2.237,3.06,4.026,3.72c74.778,27.54,113.229,110.772,85.708,185.542    C265.941,203.126,267.835,207.257,271.564,208.644z" fill="#fddd73"/>
	</g>
</g>
<g>
</g>
<g>
</g>
<g>
</g>
<g>
</g>
<g>
</g>
<g>
</g>
<g>
</g>
<g>
</g>
<g>
</g>
<g>
</g>
<g>
</g>
<g>
</g>
<g>
</g>
<g>
</g>
<g>
</g>
</svg>
